<svg id="Layer_1" data-name="Layer 1" xmlns="http://www.w3.org/2000/svg" viewBox="0 0 974.48 573.15"><defs><style>.cls-1{font-size:245.78px;font-family:SFProDisplay-Black, SF Pro Display;}.cls-2{font-size:165.5px;font-family:SFProDisplay-Bold, SF Pro Display;font-weight:700;}.cls-3{letter-spacing:-0.02em;}</style></defs><title>GitHubSearch</title><path d="M293.83,220.36q-38.09,0-65.54,25.21-28.56,26.89-28.57,67.22,0,26.89,15.65,50.42c9.34,14.56,19.09,23.9,31.89,28v1.12c-12.8,5.22-18.48,18.3-18.48,39.21,0,16.06,5.69,28,18.48,35.85v1.12c-35.33,11.57-51.5,33-51.5,64.41,0,27.27,11.87,47.24,35,59.94C249.09,603,272.58,608,301,608q103.63,0,103.7-86.83,0-54.33-80.06-66.66-18.48-2.79-28-13.45-7.28-7.28-7.27-14.56,0-20.72,22.41-24.09,34.17-5,55.74-31.65t21.57-62.46c0-7.47-2.26-15.5-5.24-24.09a184.31,184.31,0,0,0,21.65-6.17v-57.7c-22.53,9-43.49,13.44-61.42,13.44A98.26,98.26,0,0,0,293.83,220.36ZM300,499.89q47.06,0,47.05,28.57,0,30.25-43.13,30.25-49.29,0-49.29-29.13Q254.62,499.88,300,499.89ZM296.07,352q-35.29,0-35.29-38.65,0-41.45,35.29-41.45,16.8,0,26.33,12.88,7.84,11.77,7.85,28Q330.25,352,296.07,352ZM466.39,96q-16.24,0-27.73,12.32A42,42,0,0,0,427.17,138a41.31,41.31,0,0,0,11.48,29.13q11.48,12.33,27.73,12.32,15.68,0,27.17-12.32A41.31,41.31,0,0,0,505,138a42,42,0,0,0-11.48-29.69Q482.07,96,466.39,96Zm31.37,128h-63.3c.75,7.17-.32,18-.32,35.57V433.79c0,17.93,1.07,32.39.32,38h63.3c-.75-8.19-2.7-22.33-2.7-41.38v-172C495.06,242,497,231.17,497.76,224Zm139.6,194.1c-16.44,0-24.54-12.51-24.54-37.53V277.25h24.93c4.48,0,8.52-.25,13.56.12a87.32,87.32,0,0,0,9.64.13V224H612.82V200.19a107.05,107.05,0,0,1,2.53-22.27h-65c1.12,5.12,1,12.94,1,23.4V224H523.23v53.49a143.27,143.27,0,0,1,19.4-1.68l8.76.56v.29h0v101.1q0,47.06,11.82,68.9c10.46,19.42,28.81,29.13,56.07,29.13,19.42,0,36.56-3.73,49.36-11.2v-56C658.39,414.93,648.94,418.1,637.36,418.1Z" transform="translate(-195.76 -96)"/><text class="cls-1" transform="translate(476.92 369.02)">Hub</text><text class="cls-2" transform="translate(220.66 490.08)">sea<tspan class="cls-3" x="267.73" y="0">r</tspan><tspan x="325.1" y="0">ch</tspan></text></svg>